<?xml version="1.0" encoding="utf-8"?>
<svg id="master-artboard" xmlns="http://www.w3.org/2000/svg" viewBox="0 0 240.4213409423828 68.64134216308594" width="240.4213409423828px" height="68.64134216308594px"><defs><radialGradient id="gradient-0" gradientUnits="objectBoundingBox" cx="0.5" cy="0.5" r="0.5">
                <stop offset="0" style="stop-color: #ffa321"/>
                <stop offset="1" style="stop-color: #ba6d00"/>
              </radialGradient><linearGradient id="gradient-1" gradientUnits="userSpaceOnUse" x1="652" y1="46" x2="652" y2="146" gradientTransform="matrix(0.9999176025390625, -0.01283172607421875, 0.0131707763671875, 1.026341209411621, -0.552132568359375, 7.15459358215332)">
                <stop offset="0" style="stop-color: #ffa321"/>
                <stop offset="1" style="stop-color: #ba6d00"/>
              </linearGradient><style id="ee-google-fonts">@import url(https://fonts.googleapis.com/css?family=Kanit:100,100italic,200,200italic,300,300italic,400,400italic,500,500italic,600,600italic,700,700italic,800,800italic,900,900italic|Amaranth:400,400italic,700,700italic);</style><radialGradient id="gradient-2" gradientUnits="objectBoundingBox" cx="0.5" cy="0.5" r="0.5">
                <stop offset="0" style="stop-color: #ffa321"/>
                <stop offset="1" style="stop-color: #ba6d00"/>
              </radialGradient><linearGradient id="gradient-3" gradientUnits="userSpaceOnUse" x1="652" y1="46" x2="652" y2="146" gradientTransform="matrix(0.9999176025390625, -0.01283172607421875, 0.0131707763671875, 1.026341209411621, -0.552132568359375, 7.15459358215332)">
                <stop offset="0" style="stop-color: #ffa321"/>
                <stop offset="1" style="stop-color: #ba6d00"/>
              </linearGradient></defs><path d="M 179.607177734375 249 L 170.0571746826172 249 L 170.0571746826172 231.8699951171875 L 179.607177734375 231.8699951171875 L 179.607177734375 233.63999938964844 L 172.04718017578125 233.63999938964844 L 172.04718017578125 239.16000366210938 L 179.1471710205078 239.16000366210938 L 179.1471710205078 240.91000366210938 L 172.04718017578125 240.91000366210938 L 172.04718017578125 247.22000122070312 L 179.607177734375 247.22000122070312 L 179.607177734375 249 ZM 188.28628540039062 249 L 188.28628540039062 240.69000244140625 C 188.28628540039062 239.64334106445312 188.0496063232422 238.8633270263672 187.57627868652344 238.35000610351562 C 187.09628295898438 237.8300018310547 186.349609375 237.57000732421875 185.33627319335938 237.57000732421875 C 183.98960876464844 237.57000732421875 183.00628662109375 237.93333435058594 182.3862762451172 238.66000366210938 C 181.75961303710938 239.3866729736328 181.44627380371094 240.586669921875 181.44627380371094 242.25999450683594 L 181.44627380371094 249 L 179.49627685546875 249 L 179.49627685546875 236.16000366210938 L 181.07627868652344 236.16000366210938 L 181.3962860107422 237.91000366210938 L 181.4862823486328 237.91000366210938 C 181.8862762451172 237.27667236328125 182.44627380371094 236.7866668701172 183.16627502441406 236.44000244140625 C 183.8862762451172 236.0933380126953 184.686279296875 235.9199981689453 185.5662841796875 235.9199981689453 C 187.11294555664062 235.9199981689453 188.2796173095703 236.2933349609375 189.0662841796875 237.0399932861328 C 189.84628295898438 237.7866668701172 190.2362823486328 238.97999572753906 190.2362823486328 240.6199951171875 L 190.2362823486328 249 L 188.28628540039062 249 ZM 198.2549591064453 247.6300048828125 C 198.60162353515625 247.6300048828125 198.93495178222656 247.60333251953125 199.2549591064453 247.5500030517578 C 199.574951171875 247.50332641601562 199.8282928466797 247.4499969482422 200.01495361328125 247.38999938964844 L 200.01495361328125 248.8800048828125 C 199.80162048339844 248.98666381835938 199.4916229248047 249.07000732421875 199.08494567871094 249.1300048828125 C 198.67161560058594 249.19667053222656 198.30162048339844 249.22999572753906 197.97494506835938 249.22999572753906 C 195.48828125 249.22999572753906 194.2449493408203 247.92333984375 194.2449493408203 245.30999755859375 L 194.2449493408203 237.6699981689453 L 192.4049530029297 237.6699981689453 L 192.4049530029297 236.72999572753906 L 194.2449493408203 235.9199981689453 L 195.06495666503906 233.17999267578125 L 196.1949462890625 233.17999267578125 L 196.1949462890625 236.16000366210938 L 199.92495727539062 236.16000366210938 L 199.92495727539062 237.6699981689453 L 196.1949462890625 237.6699981689453 L 196.1949462890625 245.22999572753906 C 196.1949462890625 246.00332641601562 196.37828063964844 246.59666442871094 196.7449493408203 247.00999450683594 C 197.1116180419922 247.42333984375 197.61495971679688 247.6300048828125 198.2549591064453 247.6300048828125 ZM 204.40451049804688 249.22999572753906 C 202.50450134277344 249.22999572753906 201.00450134277344 248.65333557128906 199.90451049804688 247.5 C 198.81117248535156 246.34666442871094 198.26451110839844 244.74000549316406 198.26451110839844 242.67999267578125 C 198.26451110839844 240.6133270263672 198.77450561523438 238.97000122070312 199.7945098876953 237.75 C 200.8144989013672 236.52999877929688 202.18116760253906 235.9199981689453 203.89450073242188 235.9199981689453 C 205.50784301757812 235.9199981689453 206.7811737060547 236.4499969482422 207.71450805664062 237.50999450683594 C 208.65451049804688 238.57000732421875 209.12451171875 239.96665954589844 209.12451171875 241.6999969482422 L 209.12451171875 242.92999267578125 L 200.27450561523438 242.92999267578125 C 200.3144989013672 244.43666076660156 200.69784545898438 245.5800018310547 201.42449951171875 246.36000061035156 C 202.14450073242188 247.14666748046875 203.1611785888672 247.5399932861328 204.47450256347656 247.5399932861328 C 205.85450744628906 247.5399932861328 207.22117614746094 247.25 208.5745086669922 246.6699981689453 L 208.5745086669922 248.39999389648438 C 207.88783264160156 248.6999969482422 207.2378387451172 248.913330078125 206.62451171875 249.0399932861328 C 206.01116943359375 249.1666717529297 205.27117919921875 249.22999572753906 204.40451049804688 249.22999572753906 M 203.87451171875 237.5500030517578 C 202.84117126464844 237.5500030517578 202.01783752441406 237.8866729736328 201.40451049804688 238.55999755859375 C 200.79116821289062 239.23333740234375 200.43116760253906 240.163330078125 200.3245086669922 241.35000610351562 L 207.0445098876953 241.35000610351562 C 207.0445098876953 240.1233367919922 206.76783752441406 239.18333435058594 206.21450805664062 238.52999877929688 C 205.66783142089844 237.8766632080078 204.88783264160156 237.5500030517578 203.87451171875 237.5500030517578 ZM 219.44317626953125 235.9199981689453 C 220.01651000976562 235.9199981689453 220.52984619140625 235.96665954589844 220.98318481445312 236.05999755859375 L 220.7131805419922 237.8699951171875 C 220.17984008789062 237.75 219.7098388671875 237.69000244140625 219.3031768798828 237.69000244140625 C 218.26318359375 237.69000244140625 217.3765106201172 238.1133270263672 216.64317321777344 238.9600067138672 C 215.90318298339844 239.8000030517578 215.53317260742188 240.85000610351562 215.53317260742188 242.11000061035156 L 215.53317260742188 249 L 213.5831756591797 249 L 213.5831756591797 236.16000366210938 L 215.19317626953125 236.16000366210938 L 215.41317749023438 238.5399932861328 L 215.503173828125 238.5399932861328 C 215.98318481445312 237.6999969482422 216.55984497070312 237.05332946777344 217.23318481445312 236.60000610351562 C 217.89984130859375 236.14666748046875 218.63650512695312 235.9199981689453 219.44317626953125 235.9199981689453 ZM 226.15184020996094 236.16000366210938 L 228.24183654785156 236.16000366210938 L 231.0518341064453 243.47999572753906 C 231.6718292236328 245.15333557128906 232.05517578125 246.36000061035156 232.20184326171875 247.10000610351562 L 232.29183959960938 247.10000610351562 C 232.39849853515625 246.6999969482422 232.61183166503906 246.02000427246094 232.9318389892578 245.05999755859375 C 233.2584991455078 244.0933380126953 234.31849670410156 241.1266632080078 236.11183166503906 236.16000366210938 L 238.20184326171875 236.16000366210938 L 232.6818389892578 250.77999877929688 C 232.13516235351562 252.22666931152344 231.4951629638672 253.25332641601562 230.7618408203125 253.86000061035156 C 230.03517150878906 254.46665954589844 229.14183044433594 254.77000427246094 228.0818328857422 254.77000427246094 C 227.48184204101562 254.77000427246094 226.89517211914062 254.70333862304688 226.32183837890625 254.57000732421875 L 226.32183837890625 253.00999450683594 C 226.74850463867188 253.10333251953125 227.22850036621094 253.14999389648438 227.7618408203125 253.14999389648438 C 229.0951690673828 253.14999389648438 230.0485076904297 252.39999389648438 230.62184143066406 250.89999389648438 L 231.3318328857422 249.07000732421875 L 226.15184020996094 236.16000366210938 ZM 249.02093505859375 242.57000732421875 C 249.02093505859375 244.663330078125 248.49427795410156 246.29666137695312 247.44094848632812 247.47000122070312 C 246.3809356689453 248.64332580566406 244.9242706298828 249.22999572753906 243.07093811035156 249.22999572753906 C 241.9176025390625 249.22999572753906 240.89761352539062 248.9633331298828 240.0109405517578 248.42999267578125 C 239.11761474609375 247.88999938964844 238.4276123046875 247.11666870117188 237.94094848632812 246.11000061035156 C 237.4609375 245.09666442871094 237.220947265625 243.9166717529297 237.220947265625 242.57000732421875 C 237.220947265625 240.47666931152344 237.74427795410156 238.8433380126953 238.7909393310547 237.6699981689453 C 239.8376007080078 236.50332641601562 241.2909393310547 235.9199981689453 243.15093994140625 235.9199981689453 C 244.94427490234375 235.9199981689453 246.37094116210938 236.51666259765625 247.43093872070312 237.7100067138672 C 248.49093627929688 238.91000366210938 249.02093505859375 240.52999877929688 249.02093505859375 242.57000732421875 M 239.23094177246094 242.57000732421875 C 239.23094177246094 244.2100067138672 239.56094360351562 245.4600067138672 240.220947265625 246.32000732421875 C 240.874267578125 247.17999267578125 241.8376007080078 247.61000061035156 243.11094665527344 247.61000061035156 C 244.38427734375 247.61000061035156 245.35093688964844 247.17999267578125 246.0109405517578 246.32000732421875 C 246.6709442138672 245.46665954589844 247.00094604492188 244.21665954589844 247.00094604492188 242.57000732421875 C 247.00094604492188 240.93666076660156 246.6709442138672 239.69667053222656 246.0109405517578 238.85000610351562 C 245.35093688964844 237.99667358398438 244.3776092529297 237.57000732421875 243.0909423828125 237.57000732421875 C 241.81761169433594 237.57000732421875 240.85760498046875 237.99000549316406 240.2109375 238.8300018310547 C 239.55760192871094 239.663330078125 239.23094177246094 240.91000366210938 239.23094177246094 242.57000732421875 ZM 254.36961364746094 236.16000366210938 L 254.36961364746094 244.49000549316406 C 254.36961364746094 245.5366668701172 254.609619140625 246.31666564941406 255.08961486816406 246.8300018310547 C 255.5629425048828 247.35000610351562 256.3062744140625 247.61000061035156 257.3196105957031 247.61000061035156 C 258.6662902832031 247.61000061035156 259.6496276855469 247.24000549316406 260.2696228027344 246.5 C 260.8896179199219 245.76666259765625 261.1996154785156 244.57000732421875 261.1996154785156 242.91000366210938 L 261.1996154785156 236.16000366210938 L 263.1496276855469 236.16000366210938 L 263.1496276855469 249 L 261.53961181640625 249 L 261.2596130371094 247.27999877929688 L 261.15960693359375 247.27999877929688 C 260.7596130371094 247.913330078125 260.2062683105469 248.39666748046875 259.4996032714844 248.72999572753906 C 258.7929382324219 249.06333923339844 257.98626708984375 249.22999572753906 257.0796203613281 249.22999572753906 C 255.51295471191406 249.22999572753906 254.3429412841797 248.86000061035156 253.56961059570312 248.1199951171875 C 252.78961181640625 247.3800048828125 252.3996124267578 246.19332885742188 252.3996124267578 244.55999755859375 L 252.3996124267578 236.16000366210938 L 254.36961364746094 236.16000366210938 ZM 273.00830078125 235.9199981689453 C 273.5816345214844 235.9199981689453 274.0949401855469 235.96665954589844 274.54827880859375 236.05999755859375 L 274.2782897949219 237.8699951171875 C 273.7449645996094 237.75 273.27496337890625 237.69000244140625 272.8682861328125 237.69000244140625 C 271.8282775878906 237.69000244140625 270.9416198730469 238.1133270263672 270.2082824707031 238.9600067138672 C 269.4682922363281 239.8000030517578 269.0982971191406 240.85000610351562 269.0982971191406 242.11000061035156 L 269.0982971191406 249 L 267.1482849121094 249 L 267.1482849121094 236.16000366210938 L 268.75830078125 236.16000366210938 L 268.9783020019531 238.5399932861328 L 269.06829833984375 238.5399932861328 C 269.54827880859375 237.6999969482422 270.12493896484375 237.05332946777344 270.79827880859375 236.60000610351562 C 271.4649658203125 236.14666748046875 272.2016296386719 235.9199981689453 273.00830078125 235.9199981689453 ZM 285.90692138671875 247.6300048828125 C 286.25360107421875 247.6300048828125 286.5869445800781 247.60333251953125 286.90692138671875 247.5500030517578 C 287.2269287109375 247.50332641601562 287.4802551269531 247.4499969482422 287.66693115234375 247.38999938964844 L 287.66693115234375 248.8800048828125 C 287.4535827636719 248.98666381835938 287.1435852050781 249.07000732421875 286.7369384765625 249.1300048828125 C 286.3236083984375 249.19667053222656 285.9535827636719 249.22999572753906 285.6269226074219 249.22999572753906 C 283.1402587890625 249.22999572753906 281.8969421386719 247.92333984375 281.8969421386719 245.30999755859375 L 281.8969421386719 237.6699981689453 L 280.0569152832031 237.6699981689453 L 280.0569152832031 236.72999572753906 L 281.8969421386719 235.9199981689453 L 282.7169189453125 233.17999267578125 L 283.846923828125 233.17999267578125 L 283.846923828125 236.16000366210938 L 287.5769348144531 236.16000366210938 L 287.5769348144531 237.6699981689453 L 283.846923828125 237.6699981689453 L 283.846923828125 245.22999572753906 C 283.846923828125 246.00332641601562 284.0302734375 246.59666442871094 284.3969421386719 247.00999450683594 C 284.76361083984375 247.42333984375 285.2669372558594 247.6300048828125 285.90692138671875 247.6300048828125 ZM 292.0564880371094 249.22999572753906 C 290.156494140625 249.22999572753906 288.656494140625 248.65333557128906 287.5564880371094 247.5 C 286.4631652832031 246.34666442871094 285.91650390625 244.74000549316406 285.91650390625 242.67999267578125 C 285.91650390625 240.6133270263672 286.4264831542969 238.97000122070312 287.4465026855469 237.75 C 288.46649169921875 236.52999877929688 289.8331604003906 235.9199981689453 291.5465087890625 235.9199981689453 C 293.1598205566406 235.9199981689453 294.43316650390625 236.4499969482422 295.3664855957031 237.50999450683594 C 296.3064880371094 238.57000732421875 296.7764892578125 239.96665954589844 296.7764892578125 241.6999969482422 L 296.7764892578125 242.92999267578125 L 287.9264831542969 242.92999267578125 C 287.96649169921875 244.43666076660156 288.3498229980469 245.5800018310547 289.0765075683594 246.36000061035156 C 289.7965087890625 247.14666748046875 290.81317138671875 247.5399932861328 292.1264953613281 247.5399932861328 C 293.5065002441406 247.5399932861328 294.8731689453125 247.25 296.22650146484375 246.6699981689453 L 296.22650146484375 248.39999389648438 C 295.5398254394531 248.6999969482422 294.88983154296875 248.913330078125 294.2764892578125 249.0399932861328 C 293.6631774902344 249.1666717529297 292.92315673828125 249.22999572753906 292.0564880371094 249.22999572753906 M 291.5264892578125 237.5500030517578 C 290.4931640625 237.5500030517578 289.6698303222656 237.8866729736328 289.0564880371094 238.55999755859375 C 288.44317626953125 239.23333740234375 288.0831604003906 240.163330078125 287.97650146484375 241.35000610351562 L 294.6965026855469 241.35000610351562 C 294.6965026855469 240.1233367919922 294.4198303222656 239.18333435058594 293.8664855957031 238.52999877929688 C 293.31982421875 237.8766632080078 292.5398254394531 237.5500030517578 291.5264892578125 237.5500030517578 ZM 304.3351745605469 242.42999267578125 L 299.86517333984375 236.16000366210938 L 302.0851745605469 236.16000366210938 L 305.4651794433594 241.0800018310547 L 308.8451843261719 236.16000366210938 L 311.03515625 236.16000366210938 L 306.565185546875 242.42999267578125 L 311.2651672363281 249 L 309.065185546875 249 L 305.4651794433594 243.8000030517578 L 301.8351745605469 249 L 299.6351623535156 249 L 304.3351745605469 242.42999267578125 ZM 315.124267578125 247.6300048828125 C 315.470947265625 247.6300048828125 315.8042907714844 247.60333251953125 316.124267578125 247.5500030517578 C 316.44427490234375 247.50332641601562 316.6976013183594 247.4499969482422 316.88427734375 247.38999938964844 L 316.88427734375 248.8800048828125 C 316.6709289550781 248.98666381835938 316.3609313964844 249.07000732421875 315.95428466796875 249.1300048828125 C 315.54095458984375 249.19667053222656 315.1709289550781 249.22999572753906 314.8442687988281 249.22999572753906 C 312.35760498046875 249.22999572753906 311.1142883300781 247.92333984375 311.1142883300781 245.30999755859375 L 311.1142883300781 237.6699981689453 L 309.2742614746094 237.6699981689453 L 309.2742614746094 236.72999572753906 L 311.1142883300781 235.9199981689453 L 311.93426513671875 233.17999267578125 L 313.06427001953125 233.17999267578125 L 313.06427001953125 236.16000366210938 L 316.7942810058594 236.16000366210938 L 316.7942810058594 237.6699981689453 L 313.06427001953125 237.6699981689453 L 313.06427001953125 245.22999572753906 C 313.06427001953125 246.00332641601562 313.24761962890625 246.59666442871094 313.6142883300781 247.00999450683594 C 313.98095703125 247.42333984375 314.4842834472656 247.6300048828125 315.124267578125 247.6300048828125 ZM 334.3729248046875 249 L 334.3729248046875 240.69000244140625 C 334.3729248046875 239.64334106445312 334.1362609863281 238.8633270263672 333.6629333496094 238.35000610351562 C 333.18292236328125 237.8300018310547 332.4362487792969 237.57000732421875 331.42291259765625 237.57000732421875 C 330.069580078125 237.57000732421875 329.0829162597656 237.94000244140625 328.4629211425781 238.67999267578125 C 327.8429260253906 239.413330078125 327.5329284667969 240.61666870117188 327.5329284667969 242.2899932861328 L 327.5329284667969 249 L 325.5829162597656 249 L 325.5829162597656 230.77000427246094 L 327.5329284667969 230.77000427246094 L 327.5329284667969 236.2899932861328 C 327.5329284667969 236.9499969482422 327.49957275390625 237.5 327.43292236328125 237.94000244140625 L 327.55291748046875 237.94000244140625 C 327.9395751953125 237.32000732421875 328.48626708984375 236.8333282470703 329.19293212890625 236.47999572753906 C 329.89959716796875 236.1266632080078 330.70623779296875 235.9499969482422 331.6129150390625 235.9499969482422 C 333.1795959472656 235.9499969482422 334.35626220703125 236.32000732421875 335.1429138183594 237.05999755859375 C 335.9295959472656 237.80667114257812 336.3229064941406 238.9933319091797 336.3229064941406 240.6199951171875 L 336.3229064941406 249 L 334.3729248046875 249 ZM 340.75201416015625 249.22999572753906 C 338.8520202636719 249.22999572753906 337.3520202636719 248.65333557128906 336.25201416015625 247.5 C 335.15869140625 246.34666442871094 334.6120300292969 244.74000549316406 334.6120300292969 242.67999267578125 C 334.6120300292969 240.6133270263672 335.12200927734375 238.97000122070312 336.14202880859375 237.75 C 337.1620178222656 236.52999877929688 338.5286865234375 235.9199981689453 340.2420349121094 235.9199981689453 C 341.8553466796875 235.9199981689453 343.1286926269531 236.4499969482422 344.06201171875 237.50999450683594 C 345.00201416015625 238.57000732421875 345.4720153808594 239.96665954589844 345.4720153808594 241.6999969482422 L 345.4720153808594 242.92999267578125 L 336.62200927734375 242.92999267578125 C 336.6620178222656 244.43666076660156 337.04534912109375 245.5800018310547 337.77203369140625 246.36000061035156 C 338.4920349121094 247.14666748046875 339.5086975097656 247.5399932861328 340.822021484375 247.5399932861328 C 342.2020263671875 247.5399932861328 343.5686950683594 247.25 344.9220275878906 246.6699981689453 L 344.9220275878906 248.39999389648438 C 344.2353515625 248.6999969482422 343.5853576660156 248.913330078125 342.9720153808594 249.0399932861328 C 342.35870361328125 249.1666717529297 341.6186828613281 249.22999572753906 340.75201416015625 249.22999572753906 M 340.2220153808594 237.5500030517578 C 339.1886901855469 237.5500030517578 338.3653564453125 237.8866729736328 337.75201416015625 238.55999755859375 C 337.1387023925781 239.23333740234375 336.7786865234375 240.163330078125 336.6720275878906 241.35000610351562 L 343.39202880859375 241.35000610351562 C 343.39202880859375 240.1233367919922 343.1153564453125 239.18333435058594 342.56201171875 238.52999877929688 C 342.0153503417969 237.8766632080078 341.2353515625 237.5500030517578 340.2220153808594 237.5500030517578 ZM 355.79071044921875 235.9199981689453 C 356.3640441894531 235.9199981689453 356.8773498535156 235.96665954589844 357.3306884765625 236.05999755859375 L 357.0606994628906 237.8699951171875 C 356.5273742675781 237.75 356.057373046875 237.69000244140625 355.65069580078125 237.69000244140625 C 354.6106872558594 237.69000244140625 353.7240295410156 238.1133270263672 352.9906921386719 238.9600067138672 C 352.2507019042969 239.8000030517578 351.8807067871094 240.85000610351562 351.8807067871094 242.11000061035156 L 351.8807067871094 249 L 349.9306945800781 249 L 349.9306945800781 236.16000366210938 L 351.54071044921875 236.16000366210938 L 351.7607116699219 238.5399932861328 L 351.8507080078125 238.5399932861328 C 352.3306884765625 237.6999969482422 352.9073486328125 237.05332946777344 353.5806884765625 236.60000610351562 C 354.24737548828125 236.14666748046875 354.9840393066406 235.9199981689453 355.79071044921875 235.9199981689453 ZM 365.09979248046875 249.22999572753906 C 363.1997985839844 249.22999572753906 361.6997985839844 248.65333557128906 360.59979248046875 247.5 C 359.5064697265625 246.34666442871094 358.9598083496094 244.74000549316406 358.9598083496094 242.67999267578125 C 358.9598083496094 240.6133270263672 359.46978759765625 238.97000122070312 360.48980712890625 237.75 C 361.5097961425781 236.52999877929688 362.87646484375 235.9199981689453 364.5898132324219 235.9199981689453 C 366.203125 235.9199981689453 367.4764709472656 236.4499969482422 368.4097900390625 237.50999450683594 C 369.34979248046875 238.57000732421875 369.8197937011719 239.96665954589844 369.8197937011719 241.6999969482422 L 369.8197937011719 242.92999267578125 L 360.96978759765625 242.92999267578125 C 361.0097961425781 244.43666076660156 361.39312744140625 245.5800018310547 362.11981201171875 246.36000061035156 C 362.8398132324219 247.14666748046875 363.8564758300781 247.5399932861328 365.1697998046875 247.5399932861328 C 366.5498046875 247.5399932861328 367.9164733886719 247.25 369.2698059082031 246.6699981689453 L 369.2698059082031 248.39999389648438 C 368.5831298828125 248.6999969482422 367.9331359863281 248.913330078125 367.3197937011719 249.0399932861328 C 366.70648193359375 249.1666717529297 365.9664611816406 249.22999572753906 365.09979248046875 249.22999572753906 M 364.5697937011719 237.5500030517578 C 363.5364685058594 237.5500030517578 362.713134765625 237.8866729736328 362.09979248046875 238.55999755859375 C 361.4864807128906 239.23333740234375 361.12646484375 240.163330078125 361.0198059082031 241.35000610351562 L 367.73980712890625 241.35000610351562 C 367.73980712890625 240.1233367919922 367.463134765625 239.18333435058594 366.9097900390625 238.52999877929688 C 366.3631286621094 237.8766632080078 365.5831298828125 237.5500030517578 364.5697937011719 237.5500030517578 Z" transform="matrix(0.0030621809419244528, 0, 0, 0.0030621809419244528, 137.59934997558594, 61.18821334838867)" style="fill: rgb(51, 51, 51); white-space: pre; color: rgb(51, 51, 51);"/><g transform="matrix(1, 0, 0, 1, 0.000015258790881489404, -2.8629798889160156)"><g transform="matrix(0.6390502452850342, 0, 0, 0.6390502452850342, -381.3857421875, -25.119473470255883)"><g id="g-5" transform="matrix(1, 0, 0, 1, 0, 0)">
	<g id="g-6">
		<path class="st0" d="M652,46c27.6,0,50,22.4,50,50s-22.4,50-50,50s-50-22.4-50-50S624.4,46,652,46z" style="fill: rgb(249, 171, 15);"/>
	</g>
</g></g><path d="M 407.86883544921875 157.54000854492188 C 408.4288635253906 157.54000854492188 408.96551513671875 157.58999633789062 409.4788513183594 157.69000244140625 C 409.9921875 157.79666137695312 410.4588623046875 157.9166717529297 410.87884521484375 158.0500030517578 C 411.3055114746094 158.19000244140625 411.66552734375 158.3300018310547 411.9588623046875 158.47000122070312 C 412.25885009765625 158.61666870117188 412.4621887207031 158.72999572753906 412.56884765625 158.80999755859375 L 411.39886474609375 160.8699951171875 L 411.0888366699219 160.6999969482422 C 410.8755187988281 160.5933380126953 410.6021728515625 160.46665954589844 410.26885986328125 160.32000732421875 C 409.9355163574219 160.17333984375 409.56884765625 160.04666137695312 409.1688537597656 159.94000244140625 C 408.76885986328125 159.82666015625 408.3821716308594 159.77000427246094 408.00885009765625 159.77000427246094 C 407.4355163574219 159.77000427246094 406.9355163574219 159.9066619873047 406.50885009765625 160.17999267578125 C 406.0888366699219 160.44667053222656 405.87884521484375 160.8699951171875 405.87884521484375 161.4499969482422 C 405.87884521484375 162.1699981689453 406.1088562011719 162.7566680908203 406.56884765625 163.2100067138672 C 407.0355224609375 163.6699981689453 407.7655029296875 164.08999633789062 408.75885009765625 164.47000122070312 C 409.39886474609375 164.72999572753906 409.9688415527344 165 410.4688415527344 165.27999877929688 C 410.97552490234375 165.55999755859375 411.405517578125 165.88333129882812 411.75885009765625 166.25 C 412.1121826171875 166.61666870117188 412.37884521484375 167.0399932861328 412.558837890625 167.52000427246094 C 412.7455139160156 168 412.8388366699219 168.57666015625 412.8388366699219 169.25 C 412.8388366699219 169.85665893554688 412.72216796875 170.4566650390625 412.4888610839844 171.0500030517578 C 412.2555236816406 171.64334106445312 411.91217041015625 172.1666717529297 411.4588623046875 172.6199951171875 C 410.99884033203125 173.07333374023438 410.4355163574219 173.44000244140625 409.76885986328125 173.72000122070312 C 409.09552001953125 174 408.31884765625 174.13999938964844 407.4388427734375 174.13999938964844 C 406.81219482421875 174.13999938964844 406.2188415527344 174.07666015625 405.6588439941406 173.9499969482422 C 405.0988464355469 173.82333374023438 404.5921936035156 173.67666625976562 404.13885498046875 173.50999450683594 C 403.6788635253906 173.3433380126953 403.2855224609375 173.1699981689453 402.9588623046875 172.99000549316406 C 402.6321716308594 172.81666564941406 402.38885498046875 172.67999267578125 402.2288513183594 172.5800018310547 L 403.2388610839844 170.3800048828125 L 403.6688537597656 170.6199951171875 C 403.95550537109375 170.77999877929688 404.308837890625 170.95333862304688 404.7288513183594 171.13999938964844 C 405.1421813964844 171.3333282470703 405.5821838378906 171.50999450683594 406.0488586425781 171.6699981689453 C 406.50885009765625 171.8300018310547 406.9088439941406 171.91000366210938 407.24884033203125 171.91000366210938 C 408.09552001953125 171.91000366210938 408.72552490234375 171.70333862304688 409.13885498046875 171.2899932861328 C 409.558837890625 170.8699951171875 409.76885986328125 170.2866668701172 409.76885986328125 169.5399932861328 C 409.76885986328125 169.18666076660156 409.7121887207031 168.8766632080078 409.5988464355469 168.61000061035156 C 409.4855041503906 168.35000610351562 409.3255310058594 168.1233367919922 409.11883544921875 167.92999267578125 C 408.91217041015625 167.73666381835938 408.6588439941406 167.56333923339844 408.3588562011719 167.41000366210938 C 408.0655212402344 167.2566680908203 407.7355041503906 167.11000061035156 407.36883544921875 166.97000122070312 C 406.64886474609375 166.663330078125 406.002197265625 166.36000061035156 405.4288635253906 166.05999755859375 C 404.8621826171875 165.75332641601562 404.37884521484375 165.40333557128906 403.9788513183594 165.00999450683594 C 403.578857421875 164.61666870117188 403.2755126953125 164.1699981689453 403.06884765625 163.6699981689453 C 402.8621826171875 163.163330078125 402.75885009765625 162.55999755859375 402.75885009765625 161.86000061035156 C 402.75885009765625 161.26666259765625 402.8855285644531 160.7100067138672 403.13885498046875 160.19000244140625 C 403.39886474609375 159.6699981689453 403.752197265625 159.2133331298828 404.1988525390625 158.82000732421875 C 404.6455078125 158.42666625976562 405.18218994140625 158.1133270263672 405.808837890625 157.8800048828125 C 406.4288635253906 157.65333557128906 407.1155090332031 157.54000854492188 407.86883544921875 157.54000854492188 Z M 417.961669921875 163.5800018310547 C 418.42169189453125 162.97332763671875 418.9750061035156 162.53334045410156 419.6216735839844 162.25999450683594 C 420.2750244140625 161.9933319091797 420.961669921875 161.86000061035156 421.6816711425781 161.86000061035156 C 422.9083557128906 161.86000061035156 423.79833984375 162.22999572753906 424.3516845703125 162.97000122070312 C 424.905029296875 163.71665954589844 425.1816711425781 164.72000122070312 425.1816711425781 165.97999572753906 L 425.1816711425781 174 L 422.4416809082031 174 L 422.4416809082031 166.17999267578125 C 422.4416809082031 165.5066680908203 422.3216857910156 164.97332763671875 422.0816955566406 164.5800018310547 C 421.8416748046875 164.18666076660156 421.4350280761719 163.99000549316406 420.8616943359375 163.99000549316406 C 420.5283508300781 163.99000549316406 420.1883544921875 164.0800018310547 419.8416748046875 164.25999450683594 C 419.4950256347656 164.43333435058594 419.1816711425781 164.68333435058594 418.90167236328125 165.00999450683594 C 418.6216735839844 165.336669921875 418.39501953125 165.72666931152344 418.2216796875 166.17999267578125 C 418.04833984375 166.6266632080078 417.961669921875 167.1199951171875 417.961669921875 167.66000366210938 L 417.961669921875 174 L 415.2216796875 174 L 415.2216796875 157.0800018310547 L 417.961669921875 156.60000610351562 L 417.961669921875 163.5800018310547 Z M 437.8297424316406 168.22000122070312 C 437.8297424316406 169.17999267578125 437.8897399902344 169.98333740234375 438.009765625 170.6300048828125 C 438.1297607421875 171.27667236328125 438.259765625 171.8000030517578 438.3997497558594 172.1999969482422 C 438.5797424316406 172.67999267578125 438.7730712890625 173.05667114257812 438.979736328125 173.3300018310547 L 436.8397521972656 174.19000244140625 C 436.6330871582031 173.98333740234375 436.4430847167969 173.73666381835938 436.2697448730469 173.4499969482422 C 436.1230773925781 173.19000244140625 435.9864196777344 172.8800048828125 435.8597412109375 172.52000427246094 C 435.73309326171875 172.16000366210938 435.653076171875 171.73333740234375 435.6197509765625 171.24000549316406 C 435.3464050292969 172.1999969482422 434.9097595214844 172.92333984375 434.30975341796875 173.41000366210938 C 433.7097473144531 173.89666748046875 432.8997497558594 174.13999938964844 431.8797607421875 174.13999938964844 C 431.12640380859375 174.13999938964844 430.47308349609375 174 429.91973876953125 173.72000122070312 C 429.3664245605469 173.44000244140625 428.9064025878906 173.0399932861328 428.5397644042969 172.52000427246094 C 428.173095703125 172 427.8997497558594 171.3733367919922 427.7197570800781 170.63999938964844 C 427.5464172363281 169.9066619873047 427.4597473144531 169.08999633789062 427.4597473144531 168.19000244140625 C 427.4597473144531 167.27667236328125 427.5997619628906 166.43333435058594 427.8797607421875 165.66000366210938 C 428.1597595214844 164.8866729736328 428.5530700683594 164.22000122070312 429.05975341796875 163.66000366210938 C 429.55975341796875 163.10000610351562 430.1630859375 162.66000366210938 430.8697509765625 162.33999633789062 C 431.56976318359375 162.02000427246094 432.3464050292969 161.86000061035156 433.1997375488281 161.86000061035156 C 433.67974853515625 161.86000061035156 434.17974853515625 161.89334106445312 434.6997375488281 161.9600067138672 C 435.2197570800781 162.03334045410156 435.7030944824219 162.11000061035156 436.1497497558594 162.19000244140625 C 436.5964050292969 162.27000427246094 436.9764099121094 162.34666442871094 437.2897644042969 162.4199981689453 C 437.60308837890625 162.4933319091797 437.7830810546875 162.5366668701172 437.8297424316406 162.5500030517578 L 437.8297424316406 168.22000122070312 M 432.3297424316406 172.22000122070312 C 432.729736328125 172.22000122070312 433.0997619628906 172.086669921875 433.43975830078125 171.82000732421875 C 433.7730712890625 171.54666137695312 434.0630798339844 171.19000244140625 434.30975341796875 170.75 C 434.5564270019531 170.30999755859375 434.749755859375 169.80667114257812 434.8897399902344 169.24000549316406 C 435.0230712890625 168.6666717529297 435.0897521972656 168.086669921875 435.0897521972656 167.5 L 435.0897521972656 164.0399932861328 C 434.92974853515625 163.9933319091797 434.68975830078125 163.93666076660156 434.3697509765625 163.8699951171875 C 434.04974365234375 163.80999755859375 433.7630920410156 163.77999877929688 433.509765625 163.77999877929688 C 432.903076171875 163.77999877929688 432.403076171875 163.88333129882812 432.009765625 164.08999633789062 C 431.6164245605469 164.29666137695312 431.29974365234375 164.5833282470703 431.05975341796875 164.9499969482422 C 430.81976318359375 165.31666564941406 430.653076171875 165.7566680908203 430.55975341796875 166.27000427246094 C 430.4597473144531 166.78334045410156 430.4097595214844 167.3433380126953 430.4097595214844 167.9499969482422 C 430.4097595214844 168.50999450683594 430.4264221191406 169.04666137695312 430.4597473144531 169.55999755859375 C 430.4930725097656 170.07333374023438 430.576416015625 170.52999877929688 430.7097473144531 170.92999267578125 C 430.8497619628906 171.3300018310547 431.0464172363281 171.64666748046875 431.29974365234375 171.8800048828125 C 431.5530700683594 172.10667419433594 431.89642333984375 172.22000122070312 432.3297424316406 172.22000122070312 Z M 444.56341552734375 161.75999450683594 C 445.0234069824219 161.75999450683594 445.4800720214844 161.80667114257812 445.93341064453125 161.89999389648438 C 446.3800964355469 162 446.78009033203125 162.1133270263672 447.1334228515625 162.24000549316406 C 447.5467529296875 162.3866729736328 447.9300842285156 162.5399932861328 448.2834167480469 162.6999969482422 L 447.4634094238281 164.57000732421875 C 447.1434326171875 164.42333984375 446.82342529296875 164.2933349609375 446.50341796875 164.17999267578125 C 446.2300720214844 164.086669921875 445.9300842285156 163.99667358398438 445.6034240722656 163.91000366210938 C 445.2767639160156 163.82333374023438 444.95343017578125 163.77999877929688 444.6334228515625 163.77999877929688 C 444.2667541503906 163.77999877929688 443.9500732421875 163.86666870117188 443.68341064453125 164.0399932861328 C 443.4234313964844 164.2133331298828 443.2934265136719 164.47666931152344 443.2934265136719 164.8300018310547 C 443.2934265136719 165.7433319091797 443.9567565917969 166.4566650390625 445.2834167480469 166.97000122070312 C 445.7767639160156 167.163330078125 446.2234191894531 167.36666870117188 446.6234130859375 167.5800018310547 C 447.0234069824219 167.7933349609375 447.3634338378906 168.04666137695312 447.6434326171875 168.33999633789062 C 447.9234313964844 168.6266632080078 448.1367492675781 168.9566650390625 448.2834167480469 169.3300018310547 C 448.4234313964844 169.7100067138672 448.493408203125 170.15333557128906 448.493408203125 170.66000366210938 C 448.493408203125 171.1133270263672 448.4034118652344 171.55332946777344 448.2234191894531 171.97999572753906 C 448.0367431640625 172.413330078125 447.763427734375 172.8000030517578 447.4034118652344 173.13999938964844 C 447.0434265136719 173.47332763671875 446.6034240722656 173.74000549316406 446.0834045410156 173.94000244140625 C 445.56341552734375 174.13999938964844 444.97674560546875 174.24000549316406 444.32342529296875 174.24000549316406 C 443.7967529296875 174.24000549316406 443.2767639160156 174.17999267578125 442.763427734375 174.05999755859375 C 442.2500915527344 173.94000244140625 441.79010009765625 173.80667114257812 441.3834228515625 173.66000366210938 C 440.97674560546875 173.52000427246094 440.6534118652344 173.3866729736328 440.4134216308594 173.25999450683594 L 440.05340576171875 173.08999633789062 L 440.93341064453125 171.07000732421875 L 441.25341796875 171.24000549316406 C 441.4600830078125 171.36666870117188 441.7234191894531 171.50332641601562 442.0434265136719 171.64999389648438 C 442.3634338378906 171.7899932861328 442.7067565917969 171.9199981689453 443.07342529296875 172.0399932861328 C 443.4400939941406 172.16000366210938 443.7767639160156 172.22000122070312 444.0834045410156 172.22000122070312 C 444.6434326171875 172.22000122070312 445.0600891113281 172.11000061035156 445.3334045410156 171.88999938964844 C 445.60009765625 171.663330078125 445.7334289550781 171.36666870117188 445.7334289550781 171 C 445.7334289550781 170.586669921875 445.5867614746094 170.2066650390625 445.2934265136719 169.86000061035156 C 445.0000915527344 169.51333618164062 444.5567626953125 169.22999572753906 443.9634094238281 169.00999450683594 C 442.7300720214844 168.5433349609375 441.84674072265625 168.01333618164062 441.31341552734375 167.4199981689453 C 440.7734069824219 166.8333282470703 440.50341796875 166.06666564941406 440.50341796875 165.1199951171875 C 440.50341796875 164.67333984375 440.60675048828125 164.24667358398438 440.81341552734375 163.83999633789062 C 441.0267639160156 163.42666625976562 441.31341552734375 163.06666564941406 441.6734313964844 162.75999450683594 C 442.0334167480469 162.44667053222656 442.4600830078125 162.1999969482422 442.95343017578125 162.02000427246094 C 443.4467468261719 161.84666442871094 443.9834289550781 161.75999450683594 444.56341552734375 161.75999450683594 Z M 453.6596984863281 163.5800018310547 C 453.6596984863281 163.5800018310547 454.67303466796875 162.53334045410156 455.3197021484375 162.25999450683594 C 455.9730529785156 161.9933319091797 456.6596984863281 161.86000061035156 457.37969970703125 161.86000061035156 C 458.60638427734375 161.86000061035156 459.4963684082031 162.22999572753906 460.0497131347656 162.97000122070312 C 460.6030578613281 163.71665954589844 460.87969970703125 164.72000122070312 460.87969970703125 165.97999572753906 L 460.87969970703125 174 L 458.13970947265625 174 L 458.13970947265625 166.17999267578125 C 458.13970947265625 165.5066680908203 458.01971435546875 164.97332763671875 457.77972412109375 164.5800018310547 C 457.5397033691406 164.18666076660156 457.133056640625 163.99000549316406 456.5597229003906 163.99000549316406 C 456.22637939453125 163.99000549316406 455.8863830566406 164.0800018310547 455.5397033691406 164.25999450683594 C 455.19305419921875 164.43333435058594 454.87969970703125 164.68333435058594 454.5997009277344 165.00999450683594 C 454.3197021484375 165.336669921875 454.0930480957031 165.72666931152344 453.9197082519531 166.17999267578125 C 453.7463684082031 166.6266632080078 453.6596984863281 167.1199951171875 453.6596984863281 167.66000366210938 L 453.6596984863281 174 L 450.9197082519531 174 L 450.9197082519531 157.0800018310547 L 453.6596984863281 156.60000610351562 L 453.6596984863281 163.5800018310547 Z M 473.52777099609375 168.22000122070312 C 473.52777099609375 169.17999267578125 473.5877685546875 169.98333740234375 473.7077941894531 170.6300048828125 C 473.8277893066406 171.27667236328125 473.9577941894531 171.8000030517578 474.0977783203125 172.1999969482422 C 474.27777099609375 172.67999267578125 474.4710998535156 173.05667114257812 474.6777648925781 173.3300018310547 L 472.53778076171875 174.19000244140625 C 472.33111572265625 173.98333740234375 472.14111328125 173.73666381835938 471.9677734375 173.4499969482422 C 471.82110595703125 173.19000244140625 471.6844482421875 172.8800048828125 471.5577697753906 172.52000427246094 C 471.4311218261719 172.16000366210938 471.3511047363281 171.73333740234375 471.3177795410156 171.24000549316406 C 471.04443359375 172.1999969482422 470.6077880859375 172.92333984375 470.0077819824219 173.41000366210938 C 469.40777587890625 173.89666748046875 468.5977783203125 174.13999938964844 467.5777893066406 174.13999938964844 C 466.8244323730469 174.13999938964844 466.1711120605469 174 465.6177673339844 173.72000122070312 C 465.064453125 173.44000244140625 464.60443115234375 173.0399932861328 464.23779296875 172.52000427246094 C 463.8711242675781 172 463.5977783203125 171.3733367919922 463.41778564453125 170.63999938964844 C 463.24444580078125 169.9066619873047 463.15777587890625 169.08999633789062 463.15777587890625 168.19000244140625 C 463.15777587890625 167.27667236328125 463.29779052734375 166.43333435058594 463.5777893066406 165.66000366210938 C 463.8577880859375 164.8866729736328 464.2510986328125 164.22000122070312 464.7577819824219 163.66000366210938 C 465.2577819824219 163.10000610351562 465.8611145019531 162.66000366210938 466.5677795410156 162.33999633789062 C 467.2677917480469 162.02000427246094 468.04443359375 161.86000061035156 468.89776611328125 161.86000061035156 C 469.3777770996094 161.86000061035156 469.8777770996094 161.89334106445312 470.39776611328125 161.9600067138672 C 470.91778564453125 162.03334045410156 471.401123046875 162.11000061035156 471.8477783203125 162.19000244140625 C 472.29443359375 162.27000427246094 472.6744384765625 162.34666442871094 472.98779296875 162.4199981689453 C 473.3011169433594 162.4933319091797 473.4811096191406 162.5366668701172 473.52777099609375 162.5500030517578 L 473.52777099609375 168.22000122070312 M 468.02777099609375 172.22000122070312 C 468.4277648925781 172.22000122070312 468.79779052734375 172.086669921875 469.1377868652344 171.82000732421875 C 469.4710998535156 171.54666137695312 469.7611083984375 171.19000244140625 470.0077819824219 170.75 C 470.25445556640625 170.30999755859375 470.4477844238281 169.80667114257812 470.5877685546875 169.24000549316406 C 470.7210998535156 168.6666717529297 470.78778076171875 168.086669921875 470.78778076171875 167.5 L 470.78778076171875 164.0399932861328 C 470.6277770996094 163.9933319091797 470.3877868652344 163.93666076660156 470.0677795410156 163.8699951171875 C 469.7477722167969 163.80999755859375 469.46112060546875 163.77999877929688 469.2077941894531 163.77999877929688 C 468.6011047363281 163.77999877929688 468.1011047363281 163.88333129882812 467.7077941894531 164.08999633789062 C 467.314453125 164.29666137695312 466.9977722167969 164.5833282470703 466.7577819824219 164.9499969482422 C 466.5177917480469 165.31666564941406 466.3511047363281 165.7566680908203 466.2577819824219 166.27000427246094 C 466.15777587890625 166.78334045410156 466.1077880859375 167.3433380126953 466.1077880859375 167.9499969482422 C 466.1077880859375 168.50999450683594 466.12445068359375 169.04666137695312 466.15777587890625 169.55999755859375 C 466.19110107421875 170.07333374023438 466.2744445800781 170.52999877929688 466.40777587890625 170.92999267578125 C 466.54779052734375 171.3300018310547 466.74444580078125 171.64666748046875 466.9977722167969 171.8800048828125 C 467.2510986328125 172.10667419433594 467.5944519042969 172.22000122070312 468.02777099609375 172.22000122070312 Z M 483.6943054199219 174 L 483.6943054199219 166.25 C 483.6943054199219 165.57666015625 483.5743103027344 165.0366668701172 483.3343200683594 164.6300048828125 C 483.09429931640625 164.22332763671875 482.6876525878906 164.02000427246094 482.11431884765625 164.02000427246094 C 481.740966796875 164.02000427246094 481.3843078613281 164.11000061035156 481.0443115234375 164.2899932861328 C 480.6976318359375 164.47666931152344 480.38763427734375 164.74667358398438 480.11431884765625 165.10000610351562 C 479.8476257324219 165.44667053222656 479.62762451171875 165.8733367919922 479.4543151855469 166.3800048828125 C 479.2876281738281 166.8866729736328 479.2043151855469 167.4499969482422 479.2043151855469 168.07000732421875 L 479.2043151855469 174 L 476.47430419921875 174 L 476.47430419921875 167.9499969482422 C 476.47430419921875 166.99000549316406 476.40765380859375 166.18666076660156 476.2742919921875 165.5399932861328 C 476.14764404296875 164.89334106445312 476.0143127441406 164.3699951171875 475.8742980957031 163.97000122070312 C 475.6943054199219 163.50332641601562 475.5009765625 163.1266632080078 475.2943115234375 162.83999633789062 L 477.4543151855469 161.97999572753906 C 477.61431884765625 162.15333557128906 477.7742919921875 162.36666870117188 477.9342956542969 162.6199951171875 C 478.06097412109375 162.84666442871094 478.1876525878906 163.1233367919922 478.3143005371094 163.4499969482422 C 478.4476318359375 163.77667236328125 478.5542907714844 164.14999389648438 478.6343078613281 164.57000732421875 C 479.0476379394531 163.61000061035156 479.64764404296875 162.9166717529297 480.4342956542969 162.49000549316406 C 481.21429443359375 162.07000732421875 482.0376281738281 161.86000061035156 482.904296875 161.86000061035156 C 484.13763427734375 161.86000061035156 485.02764892578125 162.22999572753906 485.5743103027344 162.97000122070312 C 486.12762451171875 163.71665954589844 486.404296875 164.72000122070312 486.404296875 165.97999572753906 L 486.404296875 174 L 483.6943054199219 174 Z M 492.1759948730469 156.60000610351562 L 492.1759948730469 163.44000244140625 C 492.30267333984375 163.27999877929688 492.46600341796875 163.10665893554688 492.666015625 162.9199981689453 C 492.8659973144531 162.74000549316406 493.1159973144531 162.57000732421875 493.416015625 162.41000366210938 C 493.7226867675781 162.25 494.0760192871094 162.1133270263672 494.47601318359375 162 C 494.8760070800781 161.8866729736328 495.33935546875 161.8300018310547 495.8659973144531 161.8300018310547 C 496.3659973144531 161.8300018310547 496.829345703125 161.90333557128906 497.2560119628906 162.0500030517578 C 497.6893310546875 162.19000244140625 498.06268310546875 162.39666748046875 498.3760070800781 162.6699981689453 C 498.6893310546875 162.94332885742188 498.9360046386719 163.27667236328125 499.1159973144531 163.6699981689453 C 499.30267333984375 164.06333923339844 499.39599609375 164.5066680908203 499.39599609375 165 C 499.39599609375 165.72000122070312 499.24932861328125 166.31333923339844 498.95599365234375 166.77999877929688 C 498.656005859375 167.24000549316406 498.3226623535156 167.60665893554688 497.95599365234375 167.8800048828125 C 497.54266357421875 168.1999969482422 497.06268310546875 168.4566650390625 496.5160217285156 168.64999389648438 L 499.8760070800781 174 L 496.7760009765625 174 L 493.3260192871094 168.02000427246094 L 493.2960205078125 167.77999877929688 C 493.4293518066406 167.75332641601562 493.6759948730469 167.68333435058594 494.0360107421875 167.57000732421875 C 494.39599609375 167.4566650390625 494.7660217285156 167.29666137695312 495.14599609375 167.08999633789062 C 495.5326843261719 166.88333129882812 495.8726806640625 166.6233367919922 496.166015625 166.30999755859375 C 496.46600341796875 165.99667358398438 496.6159973144531 165.6233367919922 496.6159973144531 165.19000244140625 C 496.6159973144531 164.72999572753906 496.4793395996094 164.3800048828125 496.20599365234375 164.13999938964844 C 495.93267822265625 163.89999389648438 495.5726623535156 163.77999877929688 495.1260070800781 163.77999877929688 C 494.51934814453125 163.77999877929688 494.0226745605469 163.89999389648438 493.6360168457031 164.13999938964844 C 493.24932861328125 164.3800048828125 492.9493408203125 164.64999389648438 492.7359924316406 164.9499969482422 C 492.5226745605469 165.2566680908203 492.3760070800781 165.54666137695312 492.2960205078125 165.82000732421875 C 492.21600341796875 166.086669921875 492.1759948730469 166.24667358398438 492.1759948730469 166.3000030517578 L 492.1759948730469 174 L 489.4360046386719 174 L 489.4360046386719 157.0800018310547 L 492.1759948730469 156.60000610351562 Z M 512.83056640625 157.54000854492188 C 513.3905639648438 157.54000854492188 513.92724609375 157.58999633789062 514.4405517578125 157.69000244140625 C 514.9539184570312 157.79666137695312 515.4205932617188 157.9166717529297 515.840576171875 158.0500030517578 C 516.2672729492188 158.19000244140625 516.6272583007812 158.3300018310547 516.9205932617188 158.47000122070312 C 517.2205810546875 158.61666870117188 517.4238891601562 158.72999572753906 517.5305786132812 158.80999755859375 L 516.360595703125 160.8699951171875 L 516.0505981445312 160.6999969482422 C 515.8372192382812 160.5933380126953 515.5639038085938 160.46665954589844 515.2305908203125 160.32000732421875 C 514.897216796875 160.17333984375 514.5305786132812 160.04666137695312 514.1305541992188 159.94000244140625 C 513.7305908203125 159.82666015625 513.3439331054688 159.77000427246094 512.9705810546875 159.77000427246094 C 512.3972778320312 159.77000427246094 511.8972473144531 159.9066619873047 511.4705810546875 160.17999267578125 C 511.0505676269531 160.44667053222656 510.840576171875 160.8699951171875 510.840576171875 161.4499969482422 C 510.840576171875 162.1699981689453 511.0705871582031 162.7566680908203 511.53057861328125 163.2100067138672 C 511.99725341796875 163.6699981689453 512.7272338867188 164.08999633789062 513.7205810546875 164.47000122070312 C 514.360595703125 164.72999572753906 514.9306030273438 165 515.4306030273438 165.27999877929688 C 515.937255859375 165.55999755859375 516.3672485351562 165.88333129882812 516.7205810546875 166.25 C 517.0739135742188 166.61666870117188 517.340576171875 167.0399932861328 517.5205688476562 167.52000427246094 C 517.707275390625 168 517.8005981445312 168.57666015625 517.8005981445312 169.25 C 517.8005981445312 169.85665893554688 517.6838989257812 170.4566650390625 517.4505615234375 171.0500030517578 C 517.2172241210938 171.64334106445312 516.8739013671875 172.1666717529297 516.4205932617188 172.6199951171875 C 515.9605712890625 173.07333374023438 515.397216796875 173.44000244140625 514.7305908203125 173.72000122070312 C 514.0572509765625 174 513.2805786132812 174.13999938964844 512.4005737304688 174.13999938964844 C 511.77392578125 174.13999938964844 511.1805725097656 174.07666015625 510.6205749511719 173.9499969482422 C 510.0605773925781 173.82333374023438 509.5539245605469 173.67666625976562 509.1005859375 173.50999450683594 C 508.6405944824219 173.3433380126953 508.24725341796875 173.1699981689453 507.92059326171875 172.99000549316406 C 507.5939025878906 172.81666564941406 507.3505859375 172.67999267578125 507.1905822753906 172.5800018310547 L 508.2005920410156 170.3800048828125 L 508.6305847167969 170.6199951171875 C 508.917236328125 170.77999877929688 509.27056884765625 170.95333862304688 509.6905822753906 171.13999938964844 C 510.1039123535156 171.3333282470703 510.5439147949219 171.50999450683594 511.0105895996094 171.6699981689453 C 511.4705810546875 171.8300018310547 511.8705749511719 171.91000366210938 512.2105712890625 171.91000366210938 C 513.0572509765625 171.91000366210938 513.687255859375 171.70333862304688 514.1005859375 171.2899932861328 C 514.5205688476562 170.8699951171875 514.7305908203125 170.2866668701172 514.7305908203125 169.5399932861328 C 514.7305908203125 169.18666076660156 514.6738891601562 168.8766632080078 514.5606079101562 168.61000061035156 C 514.447265625 168.35000610351562 514.2872314453125 168.1233367919922 514.08056640625 167.92999267578125 C 513.8739013671875 167.73666381835938 513.62060546875 167.56333923339844 513.320556640625 167.41000366210938 C 513.0272216796875 167.2566680908203 512.697265625 167.11000061035156 512.33056640625 166.97000122070312 C 511.610595703125 166.663330078125 510.96392822265625 166.36000061035156 510.3905944824219 166.05999755859375 C 509.82391357421875 165.75332641601562 509.340576171875 165.40333557128906 508.9405822753906 165.00999450683594 C 508.54058837890625 164.61666870117188 508.23724365234375 164.1699981689453 508.03057861328125 163.6699981689453 C 507.82391357421875 163.163330078125 507.7205810546875 162.55999755859375 507.7205810546875 161.86000061035156 C 507.7205810546875 161.26666259765625 507.8472595214844 160.7100067138672 508.1005859375 160.19000244140625 C 508.360595703125 159.6699981689453 508.71392822265625 159.2133331298828 509.16058349609375 158.82000732421875 C 509.60723876953125 158.42666625976562 510.1439208984375 158.1133270263672 510.77056884765625 157.8800048828125 C 511.3905944824219 157.65333557128906 512.0772705078125 157.54000854492188 512.83056640625 157.54000854492188 Z M 522.7034301757812 174.10000610351562 C 521.8567504882812 174.10000610351562 521.2100830078125 173.84666442871094 520.763427734375 173.33999633789062 C 520.31005859375 172.8333282470703 520.0834350585938 172.17999267578125 520.0834350585938 171.3800048828125 L 520.0834350585938 162.0500030517578 L 522.8234252929688 162.0500030517578 L 522.8234252929688 171.13999938964844 C 522.8234252929688 171.51333618164062 522.8800659179688 171.76333618164062 522.993408203125 171.88999938964844 C 523.1067504882812 172.01666259765625 523.2734375 172.0800018310547 523.493408203125 172.0800018310547 C 523.56005859375 172.0800018310547 523.6300659179688 172.0800018310547 523.7034301757812 172.0800018310547 C 523.7700805664062 172.0800018310547 523.8367309570312 172.07333374023438 523.9034423828125 172.05999755859375 C 523.9700927734375 172.05999755859375 524.0433959960938 172.0500030517578 524.1234130859375 172.02999877929688 L 524.4034423828125 173.75999450683594 C 524.2967529296875 173.82666015625 524.1534423828125 173.88333129882812 523.973388671875 173.92999267578125 C 523.8334350585938 173.97666931152344 523.6534423828125 174.01666259765625 523.4334106445312 174.0500030517578 C 523.2200927734375 174.0833282470703 522.9767456054688 174.10000610351562 522.7034301757812 174.10000610351562 M 521.50341796875 156.72000122070312 C 522.0167236328125 156.72000122070312 522.4100952148438 156.8733367919922 522.6834106445312 157.17999267578125 C 522.9500732421875 157.47999572753906 523.0834350585938 157.8699951171875 523.0834350585938 158.35000610351562 C 523.0834350585938 158.8300018310547 522.9434204101562 159.22999572753906 522.6633911132812 159.5500030517578 C 522.3834228515625 159.8699951171875 521.973388671875 160.02999877929688 521.4334106445312 160.02999877929688 C 520.9201049804688 160.02999877929688 520.5234375 159.8733367919922 520.243408203125 159.55999755859375 C 519.9634399414062 159.25332641601562 519.8234252929688 158.8733367919922 519.8234252929688 158.4199981689453 C 519.8234252929688 157.92666625976562 519.9634399414062 157.52000427246094 520.243408203125 157.1999969482422 C 520.5234375 156.8800048828125 520.9434204101562 156.72000122070312 521.50341796875 156.72000122070312 Z M 533.7669677734375 174 L 533.7669677734375 166.25 C 533.7669677734375 165.57666015625 533.64697265625 165.0366668701172 533.406982421875 164.6300048828125 C 533.1669921875 164.22332763671875 532.7603149414062 164.02000427246094 532.1869506835938 164.02000427246094 C 531.8136596679688 164.02000427246094 531.4569702148438 164.11000061035156 531.116943359375 164.2899932861328 C 530.7703247070312 164.47666931152344 530.4603271484375 164.74667358398438 530.1869506835938 165.10000610351562 C 529.9202880859375 165.44667053222656 529.7003173828125 165.8733367919922 529.5269775390625 166.3800048828125 C 529.3602905273438 166.8866729736328 529.2769775390625 167.4499969482422 529.2769775390625 168.07000732421875 L 529.2769775390625 174 L 526.5469970703125 174 L 526.5469970703125 167.9499969482422 C 526.5469970703125 166.99000549316406 526.4802856445312 166.18666076660156 526.3469848632812 165.5399932861328 C 526.2202758789062 164.89334106445312 526.0869750976562 164.3699951171875 525.9469604492188 163.97000122070312 C 525.7669677734375 163.50332641601562 525.5736083984375 163.1266632080078 525.366943359375 162.83999633789062 L 527.5269775390625 161.97999572753906 C 527.6869506835938 162.15333557128906 527.8469848632812 162.36666870117188 528.0069580078125 162.6199951171875 C 528.1336059570312 162.84666442871094 528.2603149414062 163.1233367919922 528.386962890625 163.4499969482422 C 528.5203247070312 163.77667236328125 528.626953125 164.14999389648438 528.7069702148438 164.57000732421875 C 529.1203002929688 163.61000061035156 529.7202758789062 162.9166717529297 530.5069580078125 162.49000549316406 C 531.2869873046875 162.07000732421875 532.1102905273438 161.86000061035156 532.9769897460938 161.86000061035156 C 534.2103271484375 161.86000061035156 535.1002807617188 162.22999572753906 535.64697265625 162.97000122070312 C 536.2003173828125 163.71665954589844 536.4769897460938 164.72000122070312 536.4769897460938 165.97999572753906 L 536.4769897460938 174 L 533.7669677734375 174 Z M 541.3086547851562 176.11000061035156 C 541.5486450195312 176.2100067138672 541.8053588867188 176.30999755859375 542.0786743164062 176.41000366210938 C 542.3519897460938 176.51666259765625 542.638671875 176.61666870117188 542.9386596679688 176.7100067138672 C 543.245361328125 176.80999755859375 543.5553588867188 176.88999938964844 543.86865234375 176.9499969482422 C 544.1753540039062 177.01666259765625 544.4819946289062 177.0500030517578 544.7886962890625 177.0500030517578 C 545.6820068359375 177.0500030517578 546.3286743164062 176.77999877929688 546.7286987304688 176.24000549316406 C 547.128662109375 175.7066650390625 547.3286743164062 175.01666259765625 547.3286743164062 174.1699981689453 C 547.3286743164062 173.336669921875 547.1553344726562 172.49667358398438 546.8086547851562 171.64999389648438 C 546.5353393554688 172.4633331298828 546.1053466796875 173.0833282470703 545.5186767578125 173.50999450683594 C 544.9386596679688 173.92999267578125 544.1686401367188 174.13999938964844 543.2086791992188 174.13999938964844 C 542.455322265625 174.13999938964844 541.802001953125 174 541.2486572265625 173.72000122070312 C 540.6953125 173.44000244140625 540.2353515625 173.0399932861328 539.86865234375 172.52000427246094 C 539.5020141601562 172 539.2286987304688 171.3733367919922 539.0486450195312 170.63999938964844 C 538.8753662109375 169.9066619873047 538.7886962890625 169.08999633789062 538.7886962890625 168.19000244140625 C 538.7886962890625 167.27667236328125 538.9286499023438 166.43333435058594 539.2086791992188 165.66000366210938 C 539.4886474609375 164.8866729736328 539.8820190429688 164.22000122070312 540.388671875 163.66000366210938 C 540.888671875 163.10000610351562 541.4920043945312 162.66000366210938 542.1986694335938 162.33999633789062 C 542.898681640625 162.02000427246094 543.6753540039062 161.86000061035156 544.5286865234375 161.86000061035156 C 544.90869140625 161.86000061035156 545.3186645507812 161.88333129882812 545.7586669921875 161.92999267578125 C 546.1986694335938 161.97666931152344 546.6320190429688 162.0366668701172 547.0586547851562 162.11000061035156 C 547.4786987304688 162.18333435058594 547.878662109375 162.25999450683594 548.2586669921875 162.33999633789062 C 548.6320190429688 162.4199981689453 548.955322265625 162.49000549316406 549.2286987304688 162.5500030517578 L 549.108642578125 169.14999389648438 C 549.0953369140625 169.6300048828125 549.1220092773438 170.07000732421875 549.1886596679688 170.47000122070312 C 549.2620239257812 170.8699951171875 549.3486938476562 171.26666259765625 549.4486694335938 171.66000366210938 C 549.5419921875 172.05332946777344 549.628662109375 172.4499969482422 549.7086791992188 172.85000610351562 C 549.7886962890625 173.25 549.8286743164062 173.69000244140625 549.8286743164062 174.1699981689453 C 549.8286743164062 175.8633270263672 549.3953247070312 177.1266632080078 548.5286865234375 177.9600067138672 C 547.6686401367188 178.7933349609375 546.5020141601562 179.2100067138672 545.0286865234375 179.2100067138672 C 544.5486450195312 179.2100067138672 544.0686645507812 179.1666717529297 543.5886840820312 179.0800018310547 C 543.108642578125 178.98666381835938 542.6653442382812 178.8866729736328 542.2586669921875 178.77999877929688 C 541.8519897460938 178.6666717529297 541.5020141601562 178.55332946777344 541.2086791992188 178.44000244140625 C 540.9219970703125 178.32666015625 540.7319946289062 178.24667358398438 540.638671875 178.1999969482422 L 541.3086547851562 176.11000061035156 M 543.65869140625 172.22000122070312 C 544.0453491210938 172.22000122070312 544.4019775390625 172.0933380126953 544.7286987304688 171.83999633789062 C 545.0553588867188 171.586669921875 545.3486938476562 171.24667358398438 545.608642578125 170.82000732421875 C 545.8619995117188 170.39334106445312 546.06201171875 169.91000366210938 546.2086791992188 169.3699951171875 C 546.3486938476562 168.82333374023438 546.4186401367188 168.26333618164062 546.4186401367188 167.69000244140625 L 546.4186401367188 164.0399932861328 C 546.2586669921875 163.9933319091797 546.0186767578125 163.93666076660156 545.6986694335938 163.8699951171875 C 545.378662109375 163.80999755859375 545.0919799804688 163.77999877929688 544.8386840820312 163.77999877929688 C 544.2319946289062 163.77999877929688 543.7319946289062 163.88333129882812 543.3386840820312 164.08999633789062 C 542.9453125 164.29666137695312 542.628662109375 164.5833282470703 542.388671875 164.9499969482422 C 542.148681640625 165.31666564941406 541.9819946289062 165.7566680908203 541.888671875 166.27000427246094 C 541.7886962890625 166.78334045410156 541.7386474609375 167.3433380126953 541.7386474609375 167.9499969482422 C 541.7386474609375 168.50999450683594 541.7553100585938 169.04666137695312 541.7886962890625 169.55999755859375 C 541.822021484375 170.07333374023438 541.9053344726562 170.52999877929688 542.0386962890625 170.92999267578125 C 542.1786499023438 171.3300018310547 542.3753662109375 171.64666748046875 542.628662109375 171.8800048828125 C 542.8820190429688 172.10667419433594 543.225341796875 172.22000122070312 543.65869140625 172.22000122070312 Z M 554.9830322265625 163.5800018310547 C 555.4430541992188 162.97332763671875 555.9963989257812 162.53334045410156 556.64306640625 162.25999450683594 C 557.29638671875 161.9933319091797 557.9830322265625 161.86000061035156 558.7030639648438 161.86000061035156 C 559.9296875 161.86000061035156 560.8197021484375 162.22999572753906 561.373046875 162.97000122070312 C 561.9263916015625 163.71665954589844 562.2030639648438 164.72000122070312 562.2030639648438 165.97999572753906 L 562.2030639648438 174 L 559.4630737304688 174 L 559.4630737304688 166.17999267578125 C 559.4630737304688 165.5066680908203 559.343017578125 164.97332763671875 559.10302734375 164.5800018310547 C 558.863037109375 164.18666076660156 558.4563598632812 163.99000549316406 557.883056640625 163.99000549316406 C 557.5496826171875 163.99000549316406 557.209716796875 164.0800018310547 556.863037109375 164.25999450683594 C 556.516357421875 164.43333435058594 556.2030639648438 164.68333435058594 555.9230346679688 165.00999450683594 C 555.64306640625 165.336669921875 555.4163818359375 165.72666931152344 555.2430419921875 166.17999267578125 C 555.0697021484375 166.6266632080078 554.9830322265625 167.1199951171875 554.9830322265625 167.66000366210938 L 554.9830322265625 174 L 552.2430419921875 174 L 552.2430419921875 157.0800018310547 L 554.9830322265625 156.60000610351562 L 554.9830322265625 163.5800018310547 Z M 574.8511352539062 168.22000122070312 C 574.8511352539062 169.17999267578125 574.9111328125 169.98333740234375 575.0311279296875 170.6300048828125 C 575.151123046875 171.27667236328125 575.2811279296875 171.8000030517578 575.421142578125 172.1999969482422 C 575.6011352539062 172.67999267578125 575.79443359375 173.05667114257812 576.0010986328125 173.3300018310547 L 573.861083984375 174.19000244140625 C 573.6544189453125 173.98333740234375 573.4644775390625 173.73666381835938 573.2911376953125 173.4499969482422 C 573.1444702148438 173.19000244140625 573.0077514648438 172.8800048828125 572.881103515625 172.52000427246094 C 572.7544555664062 172.16000366210938 572.6744384765625 171.73333740234375 572.64111328125 171.24000549316406 C 572.3677978515625 172.1999969482422 571.9310913085938 172.92333984375 571.3311157226562 173.41000366210938 C 570.7311401367188 173.89666748046875 569.921142578125 174.13999938964844 568.901123046875 174.13999938964844 C 568.1477661132812 174.13999938964844 567.4944458007812 174 566.9411010742188 173.72000122070312 C 566.3877563476562 173.44000244140625 565.9277954101562 173.0399932861328 565.5610961914062 172.52000427246094 C 565.1944580078125 172 564.921142578125 171.3733367919922 564.7410888671875 170.63999938964844 C 564.5678100585938 169.9066619873047 564.4811401367188 169.08999633789062 564.4811401367188 168.19000244140625 C 564.4811401367188 167.27667236328125 564.62109375 166.43333435058594 564.901123046875 165.66000366210938 C 565.1810913085938 164.8866729736328 565.574462890625 164.22000122070312 566.0811157226562 163.66000366210938 C 566.5811157226562 163.10000610351562 567.1844482421875 162.66000366210938 567.89111328125 162.33999633789062 C 568.5911254882812 162.02000427246094 569.3677978515625 161.86000061035156 570.2211303710938 161.86000061035156 C 570.7011108398438 161.86000061035156 571.2011108398438 161.89334106445312 571.7211303710938 161.9600067138672 C 572.2410888671875 162.03334045410156 572.7244262695312 162.11000061035156 573.171142578125 162.19000244140625 C 573.6177978515625 162.27000427246094 573.997802734375 162.34666442871094 574.3110961914062 162.4199981689453 C 574.6244506835938 162.4933319091797 574.804443359375 162.5366668701172 574.8511352539062 162.5500030517578 L 574.8511352539062 168.22000122070312 M 569.3511352539062 172.22000122070312 C 569.7510986328125 172.22000122070312 570.12109375 172.086669921875 570.4611206054688 171.82000732421875 C 570.79443359375 171.54666137695312 571.08447265625 171.19000244140625 571.3311157226562 170.75 C 571.5777587890625 170.30999755859375 571.7711181640625 169.80667114257812 571.9111328125 169.24000549316406 C 572.04443359375 168.6666717529297 572.111083984375 168.086669921875 572.111083984375 167.5 L 572.111083984375 164.0399932861328 C 571.9511108398438 163.9933319091797 571.7111206054688 163.93666076660156 571.39111328125 163.8699951171875 C 571.0711059570312 163.80999755859375 570.784423828125 163.77999877929688 570.5311279296875 163.77999877929688 C 569.9244384765625 163.77999877929688 569.4244384765625 163.88333129882812 569.0311279296875 164.08999633789062 C 568.6377563476562 164.29666137695312 568.3211059570312 164.5833282470703 568.0811157226562 164.9499969482422 C 567.8411254882812 165.31666564941406 567.6744384765625 165.7566680908203 567.5811157226562 166.27000427246094 C 567.4811401367188 166.78334045410156 567.4310913085938 167.3433380126953 567.4310913085938 167.9499969482422 C 567.4310913085938 168.50999450683594 567.44775390625 169.04666137695312 567.4811401367188 169.55999755859375 C 567.5144653320312 170.07333374023438 567.5977783203125 170.52999877929688 567.7311401367188 170.92999267578125 C 567.87109375 171.3300018310547 568.0678100585938 171.64666748046875 568.3211059570312 171.8800048828125 C 568.574462890625 172.10667419433594 568.9177856445312 172.22000122070312 569.3511352539062 172.22000122070312 Z M 580.5947875976562 174.10000610351562 C 579.6881713867188 174.10000610351562 579.0181274414062 173.84666442871094 578.5848388671875 173.33999633789062 C 578.1514892578125 172.8333282470703 577.934814453125 172.19000244140625 577.934814453125 171.41000366210938 L 577.934814453125 157.0800018310547 L 580.6748046875 156.5800018310547 L 580.6748046875 171.13999938964844 C 580.6748046875 171.51333618164062 580.7448120117188 171.77000427246094 580.8848266601562 171.91000366210938 C 581.031494140625 172.05667114257812 581.241455078125 172.1300048828125 581.5148315429688 172.1300048828125 C 581.6748046875 172.1300048828125 581.828125 172.1199951171875 581.9747924804688 172.10000610351562 C 582.128173828125 172.086669921875 582.2681274414062 172.06333923339844 582.3948364257812 172.02999877929688 C 582.54150390625 171.99667358398438 582.6715087890625 171.96665954589844 582.7847900390625 171.94000244140625 L 583.1148071289062 173.66000366210938 C 582.9081420898438 173.74000549316406 582.6781616210938 173.81333923339844 582.4248046875 173.8800048828125 C 582.1981201171875 173.94667053222656 581.934814453125 174 581.6348266601562 174.0399932861328 C 581.328125 174.0800018310547 580.9815063476562 174.10000610351562 580.5947875976562 174.10000610351562 Z" transform="matrix(1, 0, 0, 1, -346.422991765544, -132.606689453125)" style="fill: rgb(255, 255, 255); white-space: pre; color: rgb(0, 0, 0);"/><path d="M 201.2045135498047 111.54000854492188 L 203.76451110839844 111.54000854492188 L 206.384521484375 123.14000701904297 L 209.31451416015625 113.42000579833984 L 209.31451416015625 111.54000854492188 L 211.44451904296875 111.54000854492188 L 214.73451232910156 123.14000701904297 L 217.40451049804688 111.54000854492188 L 219.94451904296875 111.54000854492188 L 216.36451721191406 127.00000762939453 L 213.8045196533203 127.00000762939453 L 210.7045135498047 116.18000793457031 L 207.41452026367188 127.00000762939453 L 204.8045196533203 127.00000762939453 L 201.2045135498047 111.54000854492188 ZM 226.4584503173828 127.24000549316406 C 224.4451141357422 127.24000549316406 222.9017791748047 126.74333953857422 221.8284454345703 125.75000762939453 C 220.75511169433594 124.75667572021484 220.21844482421875 123.27000427246094 220.21844482421875 121.29000854492188 C 220.21844482421875 119.41667175292969 220.6917724609375 117.96334075927734 221.63844299316406 116.93000793457031 C 222.5784454345703 115.89667510986328 223.9784393310547 115.3800048828125 225.83843994140625 115.3800048828125 C 227.51844787597656 115.3800048828125 228.80511474609375 115.82000732421875 229.6984405517578 116.70000457763672 C 230.59844970703125 117.58000946044922 231.04844665527344 118.75667572021484 231.04844665527344 120.23001098632812 L 231.04844665527344 122.34001159667969 L 222.71844482421875 122.34001159667969 C 222.84510803222656 123.43334197998047 223.235107421875 124.19001007080078 223.88844299316406 124.6100082397461 C 224.54844665527344 125.03667449951172 225.581787109375 125.25000762939453 226.9884490966797 125.25000762939453 C 227.56178283691406 125.25000762939453 228.14845275878906 125.19334411621094 228.74844360351562 125.08000946044922 C 229.34844970703125 124.9666748046875 229.88177490234375 124.8233413696289 230.34844970703125 124.65000915527344 L 230.34844970703125 126.57000732421875 C 229.34178161621094 127.01667785644531 228.04510498046875 127.24000549316406 226.4584503173828 127.24000549316406 M 228.7384490966797 120.64000701904297 L 228.7384490966797 119.85000610351562 C 228.7384490966797 119.0300064086914 228.51510620117188 118.41000366210938 228.06845092773438 117.99000549316406 C 227.6217803955078 117.56333923339844 226.9017791748047 117.35000610351562 225.908447265625 117.35000610351562 C 224.72178649902344 117.35000610351562 223.89511108398438 117.60667419433594 223.42845153808594 118.12001037597656 C 222.95510864257812 118.63333892822266 222.71844482421875 119.47334289550781 222.71844482421875 120.64000701904297 L 228.7384490966797 120.64000701904297 ZM 239.8101348876953 127.24000549316406 C 238.99679565429688 127.24000549316406 238.28680419921875 127.13333892822266 237.6801300048828 126.92000579833984 C 237.06680297851562 126.70000457763672 236.49679565429688 126.35000610351562 235.9701385498047 125.87001037597656 L 235.83013916015625 127.00000762939453 L 233.57012939453125 127.00000762939453 L 233.57012939453125 110.82000732421875 L 236.1901397705078 110.82000732421875 L 236.1901397705078 116.37001037597656 C 237.16346740722656 115.71000671386719 238.3534698486328 115.3800048828125 239.7601318359375 115.3800048828125 C 241.4401397705078 115.3800048828125 242.7334747314453 115.85667419433594 243.64013671875 116.81000518798828 C 244.5467987060547 117.76334381103516 245.00013732910156 119.23333740234375 245.00013732910156 121.22000885009766 C 245.00013732910156 123.23333740234375 244.5467987060547 124.74000549316406 243.64013671875 125.74000549316406 C 242.7334747314453 126.74000549316406 241.45680236816406 127.24000549316406 239.8101348876953 127.24000549316406 M 239.12013244628906 125.27000427246094 C 240.2667999267578 125.27000427246094 241.09347534179688 124.94334411621094 241.60012817382812 124.29000854492188 C 242.10679626464844 123.6300048828125 242.36013793945312 122.60667419433594 242.36013793945312 121.22000885009766 C 242.36013793945312 119.82667541503906 242.10012817382812 118.83667755126953 241.58013916015625 118.25000762939453 C 241.0601348876953 117.67000579833984 240.2234649658203 117.3800048828125 239.07012939453125 117.3800048828125 C 237.8834686279297 117.3800048828125 236.9234619140625 117.70667266845703 236.1901397705078 118.3600082397461 L 236.1901397705078 124.07000732421875 C 236.94346618652344 124.87001037597656 237.92013549804688 125.27000427246094 239.12013244628906 125.27000427246094 ZM 256.4290466308594 111.54000854492188 L 262.6990661621094 111.54000854492188 C 265.01904296875 111.54000854492188 266.7223815917969 112.15667724609375 267.8090515136719 113.39000701904297 C 268.8957214355469 114.62333679199219 269.4390563964844 116.6166763305664 269.4390563964844 119.37001037597656 C 269.4390563964844 122.010009765625 268.8957214355469 123.94001007080078 267.8090515136719 125.1600112915039 C 266.7223815917969 126.38667297363281 265.01904296875 127.00000762939453 262.6990661621094 127.00000762939453 L 256.4290466308594 127.00000762939453 L 256.4290466308594 111.54000854492188 M 262.2890625 124.98001098632812 C 263.3623962402344 124.98001098632812 264.2223815917969 124.82667541503906 264.8690490722656 124.52000427246094 C 265.5157165527344 124.20667266845703 266.00238037109375 123.64000701904297 266.32904052734375 122.82000732421875 C 266.6557312011719 122.00667572021484 266.8190612792969 120.85667419433594 266.8190612792969 119.37001037597656 C 266.8190612792969 117.86334228515625 266.6690673828125 116.69334411621094 266.3690490722656 115.8600082397461 C 266.0623779296875 115.03334045410156 265.5857238769531 114.44667053222656 264.9390563964844 114.10000610351562 C 264.2923889160156 113.75334167480469 263.4090576171875 113.58000946044922 262.2890625 113.58000946044922 L 259.0490417480469 113.58000946044922 L 259.0490417480469 124.98001098632812 L 262.2890625 124.98001098632812 ZM 277.0457763671875 127.24000549316406 C 275.0324401855469 127.24000549316406 273.4891357421875 126.74333953857422 272.4158020019531 125.75000762939453 C 271.34246826171875 124.75667572021484 270.8057861328125 123.27000427246094 270.8057861328125 121.29000854492188 C 270.8057861328125 119.41667175292969 271.27911376953125 117.96334075927734 272.2257995605469 116.93000793457031 C 273.1658020019531 115.89667510986328 274.5657958984375 115.3800048828125 276.42578125 115.3800048828125 C 278.10577392578125 115.3800048828125 279.3924560546875 115.82000732421875 280.2857971191406 116.70000457763672 C 281.185791015625 117.58000946044922 281.6357727050781 118.75667572021484 281.6357727050781 120.23001098632812 L 281.6357727050781 122.34001159667969 L 273.3057861328125 122.34001159667969 C 273.4324645996094 123.43334197998047 273.82244873046875 124.19001007080078 274.4757995605469 124.6100082397461 C 275.1357727050781 125.03667449951172 276.16912841796875 125.25000762939453 277.5757751464844 125.25000762939453 C 278.14910888671875 125.25000762939453 278.73577880859375 125.19334411621094 279.3357849121094 125.08000946044922 C 279.935791015625 124.9666748046875 280.4691162109375 124.8233413696289 280.935791015625 124.65000915527344 L 280.935791015625 126.57000732421875 C 279.9291076660156 127.01667785644531 278.6324462890625 127.24000549316406 277.0457763671875 127.24000549316406 M 279.3257751464844 120.64000701904297 L 279.3257751464844 119.85000610351562 C 279.3257751464844 119.0300064086914 279.1024475097656 118.41000366210938 278.6557922363281 117.99000549316406 C 278.2091064453125 117.56333923339844 277.4891357421875 117.35000610351562 276.49578857421875 117.35000610351562 C 275.3091125488281 117.35000610351562 274.4824523925781 117.60667419433594 274.0157775878906 118.12001037597656 C 273.5424499511719 118.63333892822266 273.3057861328125 119.47334289550781 273.3057861328125 120.64000701904297 L 279.3257751464844 120.64000701904297 ZM 282.4988708496094 115.62001037597656 L 285.2088623046875 115.62001037597656 L 288.40887451171875 124.46000671386719 L 291.598876953125 115.62001037597656 L 294.28887939453125 115.62001037597656 L 289.8188781738281 127.00000762939453 L 286.9888610839844 127.00000762939453 L 282.4988708496094 115.62001037597656 ZM 301.3934631347656 127.24000549316406 C 299.380126953125 127.24000549316406 297.8368225097656 126.74333953857422 296.76348876953125 125.75000762939453 C 295.6901550292969 124.75667572021484 295.1534729003906 123.27000427246094 295.1534729003906 121.29000854492188 C 295.1534729003906 119.41667175292969 295.6268005371094 117.96334075927734 296.573486328125 116.93000793457031 C 297.51348876953125 115.89667510986328 298.9134826660156 115.3800048828125 300.7734680175781 115.3800048828125 C 302.4534606933594 115.3800048828125 303.7401428222656 115.82000732421875 304.63348388671875 116.70000457763672 C 305.5334777832031 117.58000946044922 305.98345947265625 118.75667572021484 305.98345947265625 120.23001098632812 L 305.98345947265625 122.34001159667969 L 297.6534729003906 122.34001159667969 C 297.7801513671875 123.43334197998047 298.1701354980469 124.19001007080078 298.823486328125 124.6100082397461 C 299.48345947265625 125.03667449951172 300.5168151855469 125.25000762939453 301.9234619140625 125.25000762939453 C 302.4967956542969 125.25000762939453 303.0834655761719 125.19334411621094 303.6834716796875 125.08000946044922 C 304.2834777832031 124.9666748046875 304.8168029785156 124.8233413696289 305.2834777832031 124.65000915527344 L 305.2834777832031 126.57000732421875 C 304.27679443359375 127.01667785644531 302.9801330566406 127.24000549316406 301.3934631347656 127.24000549316406 M 303.6734619140625 120.64000701904297 L 303.6734619140625 119.85000610351562 C 303.6734619140625 119.0300064086914 303.45013427734375 118.41000366210938 303.00347900390625 117.99000549316406 C 302.5567932128906 117.56333923339844 301.8367919921875 117.35000610351562 300.8434753417969 117.35000610351562 C 299.65679931640625 117.35000610351562 298.83013916015625 117.60667419433594 298.36346435546875 118.12001037597656 C 297.89013671875 118.63333892822266 297.6534729003906 119.47334289550781 297.6534729003906 120.64000701904297 L 303.6734619140625 120.64000701904297 ZM 311.3661804199219 127.24000549316406 C 310.40618896484375 127.24000549316406 309.6961975097656 127.00667572021484 309.2361755371094 126.54000854492188 C 308.76953125 126.08000946044922 308.53619384765625 125.33000946044922 308.53619384765625 124.29000854492188 L 308.53619384765625 110.82000732421875 L 311.15618896484375 110.82000732421875 L 311.15618896484375 124.05001068115234 C 311.15618896484375 124.48333740234375 311.23284912109375 124.78334045410156 311.38616943359375 124.95000457763672 C 311.5328369140625 125.1166763305664 311.77618408203125 125.20000457763672 312.1161804199219 125.20000457763672 C 312.4961853027344 125.20000457763672 312.86285400390625 125.1533432006836 313.2161865234375 125.06000518798828 L 313.2161865234375 126.95000457763672 C 312.68951416015625 127.14334106445312 312.0728454589844 127.24000549316406 311.3661804199219 127.24000549316406 ZM 319.631103515625 127.24000549316406 C 315.6777648925781 127.24000549316406 313.70111083984375 125.26334381103516 313.70111083984375 121.31000518798828 C 313.70111083984375 117.35667419433594 315.6777648925781 115.3800048828125 319.631103515625 115.3800048828125 C 323.5977783203125 115.3800048828125 325.58111572265625 117.35667419433594 325.58111572265625 121.31000518798828 C 325.58111572265625 125.26334381103516 323.5977783203125 127.24000549316406 319.631103515625 127.24000549316406 M 319.631103515625 125.0300064086914 C 320.83111572265625 125.0300064086914 321.6844482421875 124.74333953857422 322.19110107421875 124.17000579833984 C 322.69110107421875 123.59000396728516 322.94110107421875 122.63667297363281 322.94110107421875 121.31000518798828 C 322.94110107421875 119.99667358398438 322.69110107421875 119.0533447265625 322.19110107421875 118.48001098632812 C 321.6844482421875 117.90667724609375 320.83111572265625 117.62001037597656 319.631103515625 117.62001037597656 C 318.4444580078125 117.62001037597656 317.6011047363281 117.90667724609375 317.1011047363281 118.48001098632812 C 316.5944519042969 119.0533447265625 316.34112548828125 119.99667358398438 316.34112548828125 121.31000518798828 C 316.34112548828125 122.63667297363281 316.5944519042969 123.59000396728516 317.1011047363281 124.17000579833984 C 317.6011047363281 124.74333953857422 318.4444580078125 125.0300064086914 319.631103515625 125.0300064086914 ZM 328.1073913574219 115.62001037597656 L 330.36737060546875 115.62001037597656 L 330.50738525390625 116.75000762939453 C 331.0340576171875 116.29000854492188 331.6040344238281 115.94667053222656 332.2173767089844 115.72000885009766 C 332.82403564453125 115.49333953857422 333.5340576171875 115.3800048828125 334.3473815917969 115.3800048828125 C 336.0473937988281 115.3800048828125 337.3373718261719 115.83667755126953 338.2173767089844 116.75000762939453 C 339.0973815917969 117.66333770751953 339.5373840332031 119.12001037597656 339.5373840332031 121.12001037597656 C 339.5373840332031 123.13333892822266 339.0707092285156 124.65667724609375 338.13739013671875 125.69001007080078 C 337.2107238769531 126.72334289550781 335.9173889160156 127.24000549316406 334.25738525390625 127.24000549316406 C 332.87738037109375 127.24000549316406 331.7007141113281 126.92000579833984 330.7273864746094 126.2800064086914 L 330.7273864746094 132.1800079345703 L 328.1073913574219 132.1800079345703 L 328.1073913574219 115.62001037597656 M 333.577392578125 125.27000427246094 C 334.6973876953125 125.27000427246094 335.53070068359375 124.92667388916016 336.077392578125 124.24000549316406 C 336.6240539550781 123.5533447265625 336.8973693847656 122.50667572021484 336.8973693847656 121.10000610351562 C 336.8973693847656 119.75334167480469 336.6473693847656 118.79667663574219 336.1473693847656 118.23001098632812 C 335.654052734375 117.66333770751953 334.82403564453125 117.3800048828125 333.6573791503906 117.3800048828125 C 332.4840393066406 117.3800048828125 331.50738525390625 117.7800064086914 330.7273864746094 118.58000946044922 L 330.7273864746094 124.260009765625 C 331.4940490722656 124.93334197998047 332.4440612792969 125.27000427246094 333.577392578125 125.27000427246094 ZM 347.85565185546875 127.24000549316406 C 345.8423156738281 127.24000549316406 344.29901123046875 126.74333953857422 343.2256774902344 125.75000762939453 C 342.15234375 124.75667572021484 341.61566162109375 123.27000427246094 341.61566162109375 121.29000854492188 C 341.61566162109375 119.41667175292969 342.0889892578125 117.96334075927734 343.0356750488281 116.93000793457031 C 343.9756774902344 115.89667510986328 345.37567138671875 115.3800048828125 347.23565673828125 115.3800048828125 C 348.9156494140625 115.3800048828125 350.20233154296875 115.82000732421875 351.0956726074219 116.70000457763672 C 351.99566650390625 117.58000946044922 352.4456481933594 118.75667572021484 352.4456481933594 120.23001098632812 L 352.4456481933594 122.34001159667969 L 344.11566162109375 122.34001159667969 C 344.2423400878906 123.43334197998047 344.63232421875 124.19001007080078 345.2856750488281 124.6100082397461 C 345.9456481933594 125.03667449951172 346.97900390625 125.25000762939453 348.3856506347656 125.25000762939453 C 348.958984375 125.25000762939453 349.545654296875 125.19334411621094 350.1456604003906 125.08000946044922 C 350.74566650390625 124.9666748046875 351.27899169921875 124.8233413696289 351.74566650390625 124.65000915527344 L 351.74566650390625 126.57000732421875 C 350.7389831542969 127.01667785644531 349.44232177734375 127.24000549316406 347.85565185546875 127.24000549316406 M 350.1356506347656 120.64000701904297 L 350.1356506347656 119.85000610351562 C 350.1356506347656 119.0300064086914 349.9123229980469 118.41000366210938 349.4656677246094 117.99000549316406 C 349.01898193359375 117.56333923339844 348.29901123046875 117.35000610351562 347.3056640625 117.35000610351562 C 346.1189880371094 117.35000610351562 345.2923278808594 117.60667419433594 344.8256530761719 118.12001037597656 C 344.3523254394531 118.63333892822266 344.11566162109375 119.47334289550781 344.11566162109375 120.64000701904297 L 350.1356506347656 120.64000701904297 ZM 354.9673767089844 115.62001037597656 L 357.36737060546875 115.62001037597656 L 357.5173645019531 116.94001007080078 C 358.057373046875 116.59333801269531 358.70404052734375 116.2733383178711 359.4573669433594 115.98001098632812 C 360.210693359375 115.69334411621094 360.95404052734375 115.49333953857422 361.6873779296875 115.3800048828125 L 361.6873779296875 117.3800048828125 C 361.0007019042969 117.50667572021484 360.2573547363281 117.70000457763672 359.4573669433594 117.96000671386719 C 358.6573791503906 118.22667694091797 358.0340270996094 118.50334167480469 357.5873718261719 118.79000854492188 L 357.5873718261719 127.00000762939453 L 354.9673767089844 127.00000762939453 L 354.9673767089844 115.62001037597656 Z" transform="matrix(0.4807158708572387, -0.006832703948020934, 0.006832703948020934, 0.4807158708572387, -28.84631922444737, -4.413050625711321)" style="fill: rgb(255, 255, 255); white-space: pre; color: rgb(0, 0, 0);"/><path d="M 148.61050415039062 56.40024185180664 L 150.51918029785156 58.30891036987305" style="fill: rgb(0, 0, 0); fill-opacity: 1; stroke: rgb(0, 0, 0); stroke-opacity: 1; stroke-width: 0; paint-order: fill;"/></g></svg>